<?xml version="1.0" encoding="utf-8"?>
<!-- Generator: Adobe Illustrator 17.0.0, SVG Export Plug-In . SVG Version: 6.00 Build 0)  -->
<!DOCTYPE svg PUBLIC "-//W3C//DTD SVG 1.0//EN" "http://www.w3.org/TR/2001/REC-SVG-20010904/DTD/svg10.dtd">
<svg version="1.0" xmlns="http://www.w3.org/2000/svg" xmlns:xlink="http://www.w3.org/1999/xlink" x="0px" y="0px" width="820px"
	 height="462px" viewBox="0 0 820 462" enable-background="new 0 0 820 462" xml:space="preserve">
<g id="Foto">
</g>
<g id="Billetes">
</g>
<g id="Navidad">
</g>
<g id="para_esta">
</g>
<g id="Funcionarios_P">
</g>
<g id="Caja">
</g>
<g id="tenemos_prestamos">
	<g>
		<g>
			<path fill="#1E5189" d="M204.083,165.174v89.449h18.728v-89.449H204.083z"/>
			<path fill="#1E5189" d="M287.667,199.2c-1.111-2.748-2.65-5.047-4.58-6.938c-1.929-1.89-4.229-3.313-6.938-4.248
				c-2.689-0.936-5.612-1.423-8.75-1.423c-5.379,0-9.783,0.974-13.193,2.904c-3.43,1.929-6.158,4.794-8.224,8.555v-9.705h-16.701
				v66.278h17.5v-37.982c0-10.153,4.541-15.22,13.622-15.22c4.131,0,7.035,0.896,8.75,2.689c1.695,1.793,2.553,5.262,2.553,10.368
				v40.145h17.656V208.69C289.362,205.104,288.797,201.947,287.667,199.2z"/>
			<path fill="#1E5189" d="M353.419,226.541c-1.033-2.28-2.748-4.19-5.125-5.729c-2.378-1.52-5.554-2.845-9.491-3.975
				c-3.956-1.111-8.809-2.475-14.557-4.092c-3.508-0.994-6.178-2.027-8.009-3.099c-1.851-1.091-2.767-2.514-2.767-4.326
				c0-2.066,0.916-3.508,2.767-4.365c1.832-0.857,4.56-1.286,8.146-1.286c3.781,0,6.587,0.702,8.419,2.085
				c1.851,1.403,2.982,3.625,3.43,6.665h16.838c-0.448-6.821-2.865-12.16-7.269-16.019c-4.404-3.859-11.361-5.807-20.871-5.807
				c-5.223,0-9.607,0.526-13.213,1.559c-3.586,1.033-6.509,2.397-8.75,4.112c-2.241,1.695-3.878,3.683-4.911,5.924
				c-1.033,2.241-1.559,4.619-1.559,7.133c0,2.787,0.39,5.301,1.15,7.542c0.76,2.261,2.241,4.326,4.443,6.197
				c2.202,1.89,5.281,3.625,9.237,5.203c3.937,1.559,9.159,3.06,15.61,4.502c3.605,0.818,6.275,1.754,8.029,2.826
				c1.754,1.091,2.611,2.826,2.611,5.262c0,2.163-1.189,3.742-3.566,4.774c-2.377,1.033-5.223,1.559-8.555,1.559
				c-3.956,0-7.152-0.857-9.627-2.553c-2.475-1.715-3.703-4.132-3.703-7.289h-18.046c0.078,3.508,0.877,6.665,2.358,9.491
				c1.481,2.845,3.586,5.262,6.334,7.289c2.728,2.007,6.041,3.566,9.9,4.638c3.859,1.091,8.165,1.617,12.92,1.617
				c9.705,0,17.032-1.949,21.963-5.846c4.93-3.917,7.405-8.828,7.405-14.752C354.958,231.92,354.452,228.841,353.419,226.541z"/>
			<path fill="#1E5189" d="M413.169,200.739v-12.394h-36.657v-17.909h-17.247v59.282c0,3.586,0.507,6.996,1.481,10.231
				c0.994,3.235,2.592,6.061,4.794,8.477c2.202,2.436,5.008,4.365,8.419,5.807c3.41,1.423,7.542,2.144,12.394,2.144
				c4.658,0,8.692-0.721,12.063-2.144c3.352-1.442,6.139-3.391,8.341-5.866c2.202-2.475,3.82-5.301,4.852-8.497
				c1.033-3.177,1.559-6.529,1.559-10.036V210.99h-16.311v17.227c0,4.151-0.838,7.327-2.494,9.569
				c-1.657,2.261-4.248,3.371-7.737,3.371c-3.605,0-6.178-1.15-7.756-3.43c-1.559-2.3-2.358-5.554-2.358-9.763v-27.225H413.169z"/>
			<path fill="#1E5189" d="M475.803,201.616c-0.994-3.274-2.592-6.002-4.794-8.204s-5.106-3.898-8.75-5.067
				c-3.644-1.15-8.068-1.754-13.271-1.754c-5.301,0-9.783,0.565-13.466,1.695c-3.683,1.13-6.665,2.709-8.964,4.775
				c-2.28,2.066-3.956,4.541-4.989,7.425c-1.033,2.865-1.579,6.002-1.676,9.413h16.311c0.448-2.962,1.54-5.34,3.293-7.133
				c1.754-1.793,4.638-2.689,8.692-2.689c3.41,0,6.119,0.604,8.146,1.812c2.027,1.208,3.021,2.904,3.021,5.047
				c0,2.339-0.76,4.034-2.28,5.067c-1.52,1.033-4.502,1.851-8.886,2.475c-4.404,0.643-8.477,1.325-12.199,2.105
				c-3.722,0.76-6.938,1.949-9.627,3.566c-2.689,1.617-4.814,3.839-6.334,6.665c-1.539,2.826-2.3,6.626-2.3,11.381
				c0,5.398,1.773,9.763,5.34,13.135c3.547,3.371,9.12,5.047,16.759,5.047c4.482,0,8.438-0.702,11.868-2.085
				c3.41-1.384,6.139-3.254,8.204-5.593c0.175,2.261,0.546,4.229,1.072,5.924h16.311v-41.879
				C477.284,208.612,476.777,204.91,475.803,201.616z M459.628,229.445c0,1.968-0.429,3.839-1.267,5.593
				c-0.857,1.734-1.988,3.274-3.371,4.58c-1.403,1.286-3.06,2.319-4.989,3.099c-1.929,0.76-4.014,1.13-6.256,1.13
				c-5.671,0-8.497-2.455-8.497-7.405c0-2.865,0.955-5.067,2.826-6.606c1.89-1.52,5.34-2.767,10.387-3.761
				c3.235-0.624,5.69-1.208,7.405-1.754c1.695-0.546,3.001-1.247,3.898-2.163L459.628,229.445z"/>
			<path fill="#1E5189" d="M522.125,238.877c-2.417,1.871-5.34,2.826-8.75,2.826c-3.41,0-6.412-1.754-9.023-5.262
				c-2.611-3.508-3.898-8.886-3.898-16.155c0-3.605,0.351-6.626,1.072-9.101c0.721-2.475,1.676-4.443,2.884-5.924
				c1.228-1.481,2.631-2.533,4.248-3.177c1.618-0.624,3.371-0.935,5.262-0.935c3.313,0,6.119,0.974,8.419,2.904
				c2.28,1.929,3.664,4.599,4.112,8.009h17.637c-0.273-3.859-1.169-7.366-2.689-10.504c-1.52-3.138-3.625-5.846-6.256-8.087
				c-2.65-2.241-5.749-3.956-9.296-5.125c-3.547-1.15-7.483-1.754-11.79-1.754c-4.677,0-8.925,0.682-12.745,2.027
				c-3.8,1.345-7.055,3.391-9.763,6.139c-2.689,2.728-4.775,6.256-6.256,10.562c-1.481,4.326-2.222,9.432-2.222,15.356
				c0,5.944,0.741,11.128,2.222,15.571c1.481,4.443,3.566,8.165,6.256,11.186c2.709,3.001,5.905,5.242,9.647,6.723
				c3.722,1.481,7.834,2.222,12.316,2.222c4.053,0,7.795-0.624,11.245-1.871c3.469-1.267,6.548-3.021,9.237-5.262
				c2.689-2.241,4.911-4.95,6.665-8.088c1.754-3.138,2.845-6.645,3.293-10.504h-17.637
				C525.945,234.239,524.561,236.987,522.125,238.877z"/>
			<path fill="#1E5189" d="M584.506,186.591c-1.793,0-3.547,0.097-5.242,0.273c-1.715,0.195-3.391,0.624-5.067,1.286
				c-1.656,0.682-3.274,1.637-4.833,2.904c-1.579,1.247-3.079,3.001-4.521,5.242v-7.951h-16.428v66.278h17.5v-34.474
				c0-10.699,5.34-16.039,16.039-16.039c1.617,0,3.235,0.136,4.852,0.409v-17.929H584.506z"/>
			<path fill="#1E5189" d="M625.801,240.553c-2.202,1.306-4.736,1.949-7.62,1.949c-4.307,0-7.795-1.481-10.426-4.443
				c-2.65-2.962-4.112-6.957-4.385-11.985h45.66c0-13.213-2.631-23.074-7.873-29.641c-5.262-6.548-12.998-9.841-23.249-9.841
				c-5.106,0-9.646,0.799-13.602,2.358c-3.956,1.579-7.288,3.839-10.036,6.821c-2.728,2.962-4.833,6.509-6.255,10.64
				c-1.442,4.131-2.163,8.75-2.163,13.875c0,24.067,11.05,36.091,33.149,36.091c7.094,0,13.193-1.832,18.319-5.515
				c5.106-3.683,8.711-8.945,10.777-15.766h-18.046C629.406,237.435,628.003,239.247,625.801,240.553z M608.281,204.325
				c2.572-2.572,5.593-3.839,9.101-3.839c1.695,0,3.371,0.292,4.989,0.857c1.617,0.604,3.04,1.501,4.307,2.709
				c1.247,1.208,2.261,2.728,3.021,4.58c0.76,1.832,1.189,3.976,1.286,6.392h-27.088
				C604.267,210.444,605.728,206.878,608.281,204.325z"/>
			<path fill="#1E5189" d="M699.952,164.102v32.876c-4.93-6.918-11.498-10.387-19.663-10.387c-4.307,0-8.146,0.838-11.517,2.495
				c-3.372,1.676-6.217,4.034-8.555,7.074c-2.339,3.06-4.112,6.684-5.32,10.855c-1.208,4.17-1.832,8.77-1.832,13.797
				c0,5.574,0.721,10.563,2.163,14.967c1.442,4.385,3.41,8.127,5.924,11.167c2.514,3.06,5.535,5.398,9.023,7.016
				c3.508,1.618,7.367,2.416,11.595,2.416c8.263,0,14.421-3.274,18.455-9.822l0.136,8.068h16.838v-90.521H699.952z M696.386,236.85
				c-2.826,3.508-6.353,5.262-10.582,5.262c-4.404,0-7.99-1.871-10.777-5.593c-2.787-3.742-4.17-8.555-4.17-14.479
				c0-13.661,5.028-20.482,15.084-20.482c9.783,0,14.694,7.191,14.694,21.554C700.634,228.763,699.212,233.342,696.386,236.85z"/>
			<path fill="#1E5189" d="M724.604,164.102v16.311h17.52v-16.311H724.604z M724.604,188.345v66.278h17.52v-66.278H724.604z"/>
			<path fill="#1E5189" d="M803.413,200.739v-12.394h-36.637v-17.909h-17.247v59.282c0,3.586,0.487,6.996,1.481,10.231
				c0.994,3.235,2.572,6.061,4.774,8.477c2.202,2.436,5.008,4.365,8.419,5.807c3.41,1.423,7.542,2.144,12.394,2.144
				c4.677,0,8.692-0.721,12.063-2.144c3.371-1.442,6.139-3.391,8.36-5.866c2.183-2.475,3.8-5.301,4.833-8.497
				c1.033-3.177,1.559-6.529,1.559-10.036V210.99h-16.311v17.227c0,4.151-0.818,7.327-2.475,9.569
				c-1.676,2.261-4.248,3.371-7.756,3.371c-3.586,0-6.178-1.15-7.737-3.43c-1.578-2.3-2.358-5.554-2.358-9.763v-27.225H803.413z"/>
		</g>
		<g>
			<path fill="#2F7744" d="M462.259,294.495c-1.111,0.974-2.572,1.481-4.404,1.481c-2.397,0-4.19-0.916-5.379-2.728
				c-1.189-1.812-1.793-4.365-1.793-7.639c0-3.215,0.604-5.749,1.812-7.581c1.208-1.851,3.099-2.767,5.671-2.767
				c1.462,0,2.806,0.448,3.975,1.384c1.189,0.935,1.988,2.241,2.397,3.917h6.158c-0.156-1.462-0.546-2.865-1.169-4.151
				c-0.643-1.306-1.501-2.436-2.572-3.391c-1.091-0.955-2.358-1.715-3.859-2.261c-1.481-0.546-3.138-0.818-4.969-0.818
				c-2.105,0-3.995,0.37-5.69,1.111c-1.695,0.741-3.138,1.793-4.326,3.157c-1.169,1.384-2.085,3.06-2.709,5.047
				c-0.643,1.988-0.955,4.229-0.955,6.704c0,2.553,0.331,4.775,1.033,6.665c0.702,1.91,1.637,3.508,2.845,4.813
				c1.228,1.286,2.65,2.261,4.326,2.923c1.676,0.643,3.469,0.974,5.379,0.974c1.715,0,3.274-0.273,4.697-0.799
				c1.403-0.526,2.65-1.286,3.742-2.261c1.072-0.974,1.968-2.144,2.67-3.488c0.721-1.364,1.228-2.884,1.559-4.58h-6.158
				C464.129,292.079,463.369,293.501,462.259,294.495z"/>
			<path fill="#2F7744" d="M483.695,277.95c-0.585,0-1.15,0.039-1.715,0.097c-0.565,0.059-1.111,0.195-1.656,0.409
				c-0.546,0.234-1.072,0.546-1.598,0.955c-0.526,0.409-1.013,0.994-1.481,1.734v-2.611h-5.398v21.768h5.749V288.98
				c0-3.508,1.754-5.262,5.262-5.262c0.546,0,1.072,0.039,1.598,0.117v-5.885H483.695z"/>
			<path fill="#2F7744" d="M497.278,295.684c-0.721,0.429-1.559,0.643-2.495,0.643c-1.423,0-2.572-0.487-3.43-1.462
				c-0.877-0.974-1.364-2.28-1.442-3.936h15.006c0-4.346-0.857-7.581-2.592-9.744c-1.734-2.144-4.268-3.235-7.639-3.235
				c-1.676,0-3.177,0.273-4.463,0.78c-1.306,0.507-2.397,1.267-3.313,2.241c-0.896,0.974-1.578,2.144-2.046,3.488
				c-0.468,1.364-0.721,2.884-0.721,4.56c0,7.912,3.644,11.868,10.894,11.868c2.339,0,4.346-0.604,6.022-1.812
				c1.676-1.208,2.865-2.943,3.547-5.184h-5.924C498.467,294.651,497.999,295.255,497.278,295.684z M491.529,283.777
				c0.838-0.838,1.832-1.267,2.982-1.267c0.565,0,1.111,0.097,1.637,0.292c0.526,0.195,1.013,0.487,1.423,0.877
				c0.409,0.409,0.741,0.916,0.994,1.52s0.39,1.306,0.409,2.105h-8.886C490.204,285.784,490.691,284.615,491.529,283.777z
				 M499.383,267.992l-9.159,5.359l1.364,2.436l9.88-4.17L499.383,267.992z"/>
			<path fill="#2F7744" d="M521.658,270.564v10.796c-1.637-2.261-3.781-3.41-6.47-3.41c-1.423,0-2.689,0.273-3.781,0.818
				c-1.111,0.546-2.046,1.325-2.826,2.319c-0.76,1.013-1.345,2.202-1.734,3.566c-0.409,1.384-0.604,2.884-0.604,4.541
				c0,1.832,0.234,3.469,0.702,4.911c0.468,1.462,1.13,2.67,1.949,3.683c0.838,0.994,1.812,1.773,2.962,2.3
				c1.169,0.526,2.436,0.799,3.82,0.799c2.709,0,4.736-1.072,6.061-3.235l0.039,2.65h5.534v-29.738H521.658z M520.469,294.476
				c-0.916,1.15-2.085,1.715-3.469,1.715c-1.442,0-2.631-0.604-3.547-1.832c-0.916-1.228-1.364-2.806-1.364-4.755
				c0-4.482,1.657-6.743,4.95-6.743c3.216,0,4.833,2.377,4.833,7.094C521.872,291.806,521.404,293.326,520.469,294.476z"/>
			<path fill="#2F7744" d="M529.745,270.564v5.359h5.768v-5.359H529.745z M529.745,278.535v21.768h5.768v-21.768H529.745z"/>
			<path fill="#2F7744" d="M555.644,282.608v-4.073h-12.044v-5.885h-5.671v19.468c0,1.189,0.175,2.3,0.487,3.371
				c0.331,1.052,0.857,1.988,1.579,2.787c0.721,0.799,1.656,1.423,2.767,1.91c1.13,0.468,2.475,0.702,4.073,0.702
				c1.539,0,2.865-0.234,3.956-0.702c1.111-0.487,2.027-1.111,2.748-1.929c0.721-0.818,1.267-1.754,1.598-2.787
				c0.331-1.052,0.507-2.144,0.507-3.313v-6.197h-5.359v5.671c0,1.364-0.273,2.416-0.819,3.157
				c-0.546,0.721-1.384,1.091-2.533,1.091c-1.189,0-2.046-0.37-2.553-1.13c-0.526-0.741-0.78-1.812-0.78-3.196v-8.945H555.644z"/>
			<path fill="#2F7744" d="M578.738,284.693c-0.526-1.423-1.247-2.631-2.222-3.625c-0.955-0.974-2.105-1.754-3.469-2.3
				c-1.364-0.546-2.904-0.818-4.599-0.818c-1.754,0-3.313,0.273-4.677,0.818c-1.364,0.546-2.553,1.325-3.527,2.319
				c-0.955,1.013-1.715,2.222-2.222,3.644c-0.526,1.403-0.78,2.982-0.78,4.697c0,1.676,0.253,3.235,0.76,4.638
				c0.487,1.423,1.228,2.631,2.183,3.625c0.955,1.013,2.124,1.793,3.527,2.358c1.384,0.565,2.962,0.838,4.736,0.838
				c1.676,0,3.196-0.273,4.58-0.818c1.364-0.546,2.533-1.325,3.488-2.319c0.974-1.013,1.695-2.222,2.222-3.625
				c0.507-1.384,0.78-2.962,0.78-4.697C579.517,287.675,579.244,286.096,578.738,284.693z M568.448,296.054
				c-3.527,0-5.281-2.202-5.281-6.626c0-4.404,1.754-6.606,5.281-6.606c3.508,0,5.262,2.202,5.262,6.606
				C573.71,293.852,571.956,296.054,568.448,296.054z"/>
			<path fill="#2F7744" d="M600.116,291.085c-0.331-0.76-0.896-1.384-1.676-1.89c-0.779-0.487-1.832-0.935-3.118-1.306
				c-1.306-0.37-2.904-0.819-4.794-1.345c-1.15-0.331-2.027-0.663-2.631-1.013S587,284.693,587,284.108
				c0-0.682,0.292-1.169,0.896-1.442c0.604-0.273,1.5-0.409,2.689-0.409c1.228,0,2.144,0.214,2.767,0.682
				c0.604,0.448,0.974,1.189,1.111,2.183h5.554c-0.156-2.241-0.955-3.995-2.397-5.262c-1.442-1.267-3.742-1.91-6.86-1.91
				c-1.715,0-3.157,0.175-4.346,0.507c-1.169,0.351-2.144,0.799-2.884,1.364c-0.741,0.546-1.267,1.208-1.598,1.949
				c-0.351,0.721-0.526,1.52-0.526,2.339c0,0.916,0.136,1.734,0.39,2.475c0.253,0.741,0.721,1.423,1.462,2.046
				c0.721,0.604,1.734,1.189,3.021,1.696c1.306,0.526,3.021,1.013,5.145,1.481c1.169,0.273,2.046,0.585,2.631,0.936
				c0.585,0.351,0.857,0.935,0.857,1.734c0,0.702-0.39,1.228-1.169,1.559c-0.78,0.351-1.715,0.507-2.806,0.507
				c-1.306,0-2.358-0.273-3.177-0.838c-0.799-0.565-1.208-1.345-1.208-2.377h-5.944c0.039,1.15,0.292,2.183,0.779,3.118
				c0.487,0.916,1.189,1.715,2.085,2.378c0.896,0.663,1.988,1.189,3.254,1.539c1.267,0.351,2.689,0.526,4.248,0.526
				c3.196,0,5.593-0.643,7.211-1.929c1.637-1.286,2.436-2.904,2.436-4.852C600.622,292.839,600.467,291.825,600.116,291.085z"/>
			<path fill="#2F7744" d="M631.491,282.881c-0.331-1.072-0.857-1.968-1.578-2.689c-0.721-0.721-1.676-1.286-2.884-1.657
				c-1.189-0.39-2.65-0.585-4.346-0.585c-1.754,0-3.235,0.195-4.443,0.565c-1.208,0.37-2.183,0.877-2.943,1.559
				c-0.741,0.682-1.286,1.5-1.637,2.436c-0.331,0.955-0.526,1.988-0.546,3.099h5.359c0.136-0.974,0.507-1.754,1.072-2.339
				c0.585-0.585,1.539-0.896,2.865-0.896c1.13,0,2.007,0.214,2.67,0.604c0.663,0.409,0.994,0.955,0.994,1.656
				c0,0.78-0.234,1.325-0.741,1.676c-0.507,0.331-1.481,0.604-2.923,0.799c-1.442,0.214-2.787,0.448-4.014,0.702
				c-1.208,0.253-2.28,0.643-3.157,1.169c-0.896,0.526-1.578,1.267-2.085,2.183c-0.507,0.935-0.741,2.183-0.741,3.742
				c0,1.773,0.565,3.216,1.734,4.326c1.169,1.111,3.001,1.657,5.515,1.657c1.481,0,2.767-0.234,3.898-0.682
				c1.111-0.468,2.027-1.072,2.709-1.851c0.058,0.741,0.175,1.403,0.351,1.949h5.359v-13.758
				C631.978,285.18,631.803,283.972,631.491,282.881z M626.171,292.04c0,0.643-0.136,1.247-0.429,1.832
				c-0.273,0.585-0.643,1.072-1.091,1.501c-0.468,0.429-1.013,0.78-1.637,1.013c-0.643,0.253-1.325,0.39-2.066,0.39
				c-1.851,0-2.787-0.819-2.787-2.436c0-0.955,0.312-1.676,0.936-2.183c0.604-0.487,1.754-0.896,3.391-1.228
				c1.072-0.214,1.89-0.409,2.436-0.585c0.565-0.175,0.994-0.409,1.286-0.702L626.171,292.04z"/>
			<path fill="#2F7744" d="M634.278,270.564v29.738h5.749v-29.738H634.278z"/>
			<path fill="#2F7744" d="M653.084,270.915v29.388h6.158v-29.388H653.084z"/>
			<path fill="#2F7744" d="M680.562,282.101c-0.37-0.916-0.877-1.676-1.501-2.28c-0.643-0.624-1.403-1.091-2.28-1.403
				c-0.896-0.312-1.851-0.468-2.884-0.468c-1.773,0-3.216,0.331-4.346,0.955c-1.111,0.643-2.007,1.579-2.689,2.806v-3.177h-5.495
				v21.768h5.749V287.83c0-3.332,1.501-5.008,4.482-5.008c1.345,0,2.319,0.292,2.865,0.896c0.565,0.585,0.857,1.715,0.857,3.391
				v13.193h5.788v-15.084C681.107,284.03,680.932,282.997,680.562,282.101z"/>
			<path fill="#2F7744" d="M702.174,291.085c-0.351-0.76-0.916-1.384-1.695-1.89c-0.779-0.487-1.812-0.935-3.118-1.306
				c-1.306-0.37-2.884-0.819-4.775-1.345c-1.15-0.331-2.046-0.663-2.65-1.013s-0.896-0.838-0.896-1.423
				c0-0.682,0.292-1.169,0.896-1.442c0.604-0.273,1.501-0.409,2.689-0.409c1.228,0,2.163,0.214,2.767,0.682
				c0.604,0.448,0.974,1.189,1.13,2.183h5.534c-0.156-2.241-0.955-3.995-2.397-5.262c-1.442-1.267-3.722-1.91-6.86-1.91
				c-1.715,0-3.157,0.175-4.346,0.507c-1.169,0.351-2.124,0.799-2.865,1.364c-0.741,0.546-1.286,1.208-1.617,1.949
				c-0.351,0.721-0.507,1.52-0.507,2.339c0,0.916,0.117,1.734,0.37,2.475c0.253,0.741,0.741,1.423,1.462,2.046
				c0.721,0.604,1.734,1.189,3.04,1.696c1.286,0.526,3.001,1.013,5.125,1.481c1.189,0.273,2.066,0.585,2.631,0.936
				c0.585,0.351,0.857,0.935,0.857,1.734c0,0.702-0.39,1.228-1.169,1.559c-0.78,0.351-1.715,0.507-2.806,0.507
				c-1.306,0-2.358-0.273-3.157-0.838c-0.818-0.565-1.228-1.345-1.228-2.377h-5.924c0.019,1.15,0.292,2.183,0.76,3.118
				c0.487,0.916,1.189,1.715,2.085,2.378c0.896,0.663,1.988,1.189,3.255,1.539c1.267,0.351,2.689,0.526,4.248,0.526
				c3.196,0,5.593-0.643,7.23-1.929c1.617-1.286,2.436-2.904,2.436-4.852C702.68,292.839,702.505,291.825,702.174,291.085z"/>
			<path fill="#2F7744" d="M721.798,282.608v-4.073h-12.043v-5.885h-5.671v19.468c0,1.189,0.175,2.3,0.487,3.371
				c0.331,1.052,0.857,1.988,1.578,2.787c0.721,0.799,1.637,1.423,2.767,1.91c1.111,0.468,2.475,0.702,4.073,0.702
				c1.539,0,2.845-0.234,3.956-0.702c1.111-0.487,2.027-1.111,2.748-1.929c0.721-0.818,1.247-1.754,1.598-2.787
				c0.331-1.052,0.507-2.144,0.507-3.313v-6.197h-5.359v5.671c0,1.364-0.273,2.416-0.818,3.157
				c-0.546,0.721-1.384,1.091-2.553,1.091c-1.169,0-2.027-0.37-2.533-1.13c-0.526-0.741-0.78-1.812-0.78-3.196v-8.945H721.798z"/>
			<path fill="#2F7744" d="M742.377,282.881c-0.312-1.072-0.838-1.968-1.559-2.689s-1.695-1.286-2.884-1.657
				c-1.189-0.39-2.65-0.585-4.365-0.585c-1.734,0-3.216,0.195-4.424,0.565c-1.208,0.37-2.183,0.877-2.943,1.559
				c-0.76,0.682-1.306,1.5-1.637,2.436c-0.351,0.955-0.526,1.988-0.565,3.099h5.359c0.156-0.974,0.526-1.754,1.091-2.339
				c0.585-0.585,1.52-0.896,2.865-0.896c1.111,0,2.007,0.214,2.67,0.604c0.663,0.409,0.994,0.955,0.994,1.656
				c0,0.78-0.253,1.325-0.741,1.676c-0.507,0.331-1.481,0.604-2.923,0.799c-1.462,0.214-2.787,0.448-4.014,0.702
				s-2.28,0.643-3.177,1.169c-0.877,0.526-1.579,1.267-2.066,2.183c-0.507,0.935-0.76,2.183-0.76,3.742
				c0,1.773,0.585,3.216,1.754,4.326c1.169,1.111,3.001,1.657,5.515,1.657c1.462,0,2.767-0.234,3.898-0.682
				c1.111-0.468,2.007-1.072,2.689-1.851c0.059,0.741,0.175,1.403,0.351,1.949h5.359v-13.758
				C742.864,285.18,742.708,283.972,742.377,282.881z M737.076,292.04c0,0.643-0.156,1.247-0.429,1.832
				c-0.273,0.585-0.643,1.072-1.111,1.501c-0.448,0.429-0.994,0.78-1.637,1.013c-0.624,0.253-1.325,0.39-2.046,0.39
				c-1.871,0-2.806-0.819-2.806-2.436c0-0.955,0.312-1.676,0.935-2.183c0.624-0.487,1.754-0.896,3.41-1.228
				c1.072-0.214,1.871-0.409,2.436-0.585c0.565-0.175,0.994-0.409,1.286-0.702L737.076,292.04z"/>
			<path fill="#2F7744" d="M764.359,282.101c-0.37-0.916-0.857-1.676-1.501-2.28c-0.643-0.624-1.403-1.091-2.28-1.403
				c-0.896-0.312-1.851-0.468-2.884-0.468c-1.773,0-3.216,0.331-4.326,0.955c-1.13,0.643-2.027,1.579-2.709,2.806v-3.177h-5.495
				v21.768h5.768V287.83c0-3.332,1.481-5.008,4.463-5.008c1.364,0,2.319,0.292,2.884,0.896c0.565,0.585,0.838,1.715,0.838,3.391
				v13.193h5.807v-15.084C764.925,284.03,764.73,282.997,764.359,282.101z"/>
			<path fill="#2F7744" d="M784.919,282.608v-4.073h-12.024v-5.885h-5.671v19.468c0,1.189,0.156,2.3,0.487,3.371
				c0.312,1.052,0.838,1.988,1.559,2.787c0.721,0.799,1.656,1.423,2.767,1.91c1.13,0.468,2.494,0.702,4.073,0.702
				c1.54,0,2.865-0.234,3.976-0.702c1.091-0.487,2.007-1.111,2.748-1.929c0.721-0.818,1.247-1.754,1.579-2.787
				c0.351-1.052,0.507-2.144,0.507-3.313v-6.197h-5.34v5.671c0,1.364-0.273,2.416-0.838,3.157c-0.546,0.721-1.384,1.091-2.533,1.091
				c-1.189,0-2.027-0.37-2.553-1.13c-0.507-0.741-0.76-1.812-0.76-3.196v-8.945H784.919z"/>
			<path fill="#2F7744" d="M799.652,295.684c-0.721,0.429-1.559,0.643-2.494,0.643c-1.423,0-2.572-0.487-3.43-1.462
				c-0.877-0.974-1.364-2.28-1.442-3.936h15.006c0-4.346-0.877-7.581-2.592-9.744c-1.734-2.144-4.268-3.235-7.639-3.235
				c-1.676,0-3.176,0.273-4.463,0.78c-1.306,0.507-2.417,1.267-3.313,2.241c-0.896,0.974-1.578,2.144-2.046,3.488
				c-0.487,1.364-0.721,2.884-0.721,4.56c0,7.912,3.644,11.868,10.894,11.868c2.338,0,4.346-0.604,6.022-1.812
				c1.676-1.208,2.865-2.943,3.547-5.184h-5.944C800.841,294.651,800.373,295.255,799.652,295.684z M793.903,283.777
				c0.838-0.838,1.832-1.267,2.982-1.267c0.565,0,1.111,0.097,1.637,0.292c0.526,0.195,0.994,0.487,1.423,0.877
				c0.409,0.409,0.741,0.916,0.994,1.52c0.253,0.604,0.39,1.306,0.409,2.105h-8.886
				C792.578,285.784,793.046,284.615,793.903,283.777z"/>
		</g>
		<g>
			<g>
				<g>
					<path fill="#1E5189" d="M176.333,223.54c-23.444-29.68-46.81-59.438-70.273-89.099c-6.957-8.808-17.149-8.945-24.185-0.136
						c-23.424,29.466-46.732,59.009-70.02,88.572c-5.067,6.431-4.989,12.998,0.156,19.41c23.775,29.66,47.589,59.302,71.521,88.826
						c6.879,8.516,16.935,8.438,23.814-0.175c23.288-29.095,46.44-58.308,69.63-87.462c2.163-2.728,3.41-5.749,3.469-10.368
						C180.581,230.088,178.846,226.717,176.333,223.54z M144.158,246.575c-8.828,28.082-41.724,43.536-69.143,34.825
						c0,0,27.419-4.404,48.739-34.688c4.56-6.49,6.158-14.616,2.884-22.021c-2.767-6.275-8.438-10.738-15.493-10.484
						c-14.421,0.526-19.235,15.999-19.235,15.999s0.877-7.464-3.898-11.829c-0.195-1.208-2.709-2.923-3.586-3.566
						c-2.144-1.579-4.658-2.67-7.327-2.865c-10.562-0.78-20.111,10.621-18.358,20.872c2.202,12.862,11.868,24.262,24.34,28.238
						c3.508,1.111,7.152,1.754,10.816,1.929c0.351,0.02,4.365,0.37,4.502-0.039c-7.405,19.761-31.707,16-41.314,6.645
						c0-0.02-0.02-0.02-0.02-0.02c-0.741-0.507-17.851-12.881-14.421-42.484c10.27-52.637,58.483-45.368,58.483-45.368
						c-17.539,9.491-13.115,36.637-13.115,36.657c0,0,7.932-23.132,17.812-28.862c15.922-9.218,30.693,10.523,36.345,23.171
						C146.964,223.384,147.685,235.389,144.158,246.575z"/>
				</g>
			</g>
		</g>
	</g>
</g>
<g id="_x31_50.000">
</g>
<g id="_x33_.000.000">
</g>
<g id="Logo">
</g>
</svg>
